<svg width="64" height="64" viewBox="0 0 34 32" fill="none" xmlns="http://www.w3.org/2000/svg">
  <path fill-rule="evenodd" clip-rule="evenodd" d="M2.21484 3.1106H31.7917V27.555H2.21484V3.1106Z" fill="white"/>
  <path fill-rule="evenodd" clip-rule="evenodd" d="M0.648438 29.2851C0.648438 30.7415 1.82913 31.9222 3.28558 31.9222H30.3953C31.8517 31.9222 33.0324 30.7415 33.0324 29.2851V2.63714C33.0324 1.18069 31.8517 0 30.3953 0H3.28558C1.82913 0 0.648438 1.18069 0.648438 2.63714V29.2851ZM22.6547 22.6303C22.5198 22.5052 22.3828 22.3815 22.245 22.2586C20.7727 20.9463 19.1624 19.7222 17.4467 18.6094C15.9013 19.5309 14.2833 20.3788 12.5992 21.1444L2.50074 19.1617C4.48417 18.6586 6.42308 18.0333 8.30938 17.2855C9.57467 16.7846 10.8122 16.2287 12.013 15.6235C11.2568 15.2748 10.4875 14.9459 9.70721 14.6367C7.82071 13.8903 5.88241 13.264 3.89958 12.7599L13.998 10.7786C15.1399 11.2972 16.252 11.8539 17.3317 12.4462C18.5707 11.5745 19.747 10.644 20.8463 9.66298C20.9845 9.5399 21.1203 9.41723 21.2565 9.29136L29.7786 7.70519C27.6461 10.5446 25.0599 13.1463 22.1015 15.4404C25.6481 17.9764 28.7143 20.9376 31.1771 24.2164L22.6547 22.6303Z" fill="#F73E4A"/>
</svg>
